<?xml version="1.0" encoding="utf-8"?>
<!-- Generator: Adobe Illustrator 20.0.0, SVG Export Plug-In . SVG Version: 6.00 Build 0)  -->
<!DOCTYPE svg PUBLIC "-//W3C//DTD SVG 1.1//EN" "http://www.w3.org/Graphics/SVG/1.1/DTD/svg11.dtd">
<svg version="1.1" id="Layer_1" xmlns="http://www.w3.org/2000/svg" xmlns:xlink="http://www.w3.org/1999/xlink" x="0px" y="0px"
	 viewBox="0 0 1132 858.6" style="enable-background:new 0 0 1132 858.6;" xml:space="preserve">
<style type="text/css">
	.st0{fill:#C82027;}
	.st1{fill:#D1D3D4;}
	.st2{fill:#7F161F;}
	.st3{fill:none;stroke:#FFFFFF;stroke-width:3;stroke-miterlimit:10;}
	.st4{fill:#FFFFFF;}
	.st5{fill:#2B2B2B;}
	.st6{fill:none;stroke:#000000;stroke-width:3;stroke-miterlimit:10;}
	.st7{fill:#E6E7E8;}
	.st8{fill:#A7A9AC;}
	.st9{fill:#F1F2F2;}
	.st10{fill:#414042;}
	.st11{fill:#58595B;}
	.st12{fill:#3F3F41;stroke:#3F3F41;stroke-width:0.3081;stroke-miterlimit:10;}
	.st13{fill:#58585A;stroke:#58585A;stroke-width:0.3081;stroke-miterlimit:10;}
	.st14{fill:#58585A;}
	.st15{fill:none;stroke:#58585A;stroke-width:0.6162;stroke-miterlimit:10;}
	.st16{fill:#FFFFFF;stroke:#3F3F41;stroke-width:0.3081;stroke-miterlimit:10;}
	.st17{fill:#3F3F41;}
	.st18{fill:#6D6E71;}
	.st19{fill:#212121;}
	.st20{fill:#DDDDDD;}
	.st21{fill:#B7B7B7;}
	.st22{fill:#F04A4A;}
	.st23{fill:#FDB523;}
	.st24{fill:#4AB749;}
	.st25{fill:#CCCCCB;}
	.st26{fill:#636464;}
	.st27{fill:none;stroke:#7F161F;stroke-width:3;stroke-miterlimit:10;}
	.st28{fill:none;}
</style>
<path class="st2" d="M323.5,501.8c0.3-0.5,0.7-1.1,1-1.6c0.6-0.9,1.2-1.9,1.8-2.8c6.7-10.9,11.8-22.8,15.2-35.3
	c13.7-50,11.1-82.9,10.1-113.6c-1.8-57.7-73.7-111.8-85.2-176.5c-19.5,31.9-9.8,89.6-9.8,89.6s-25.7-63-26.6-88.7s7.1-69.2,7.1-69.2
	l-44.4,103.8c0,0,6.2-75.4-105.6-121.5c43.5,64.8,0,146.4-10.6,171.2s-12.7,82-12.7,82s-19.2-33.2-9.4-123.7
	c-72.7,135.1-37.3,233.8,14.4,296.7c0.4,0.5,0.9,1.5,1.3,2c0.8,1,1.7,0.5,2.6,3.5h0c28.1,30,71.3,52.3,119.7,52.3
	c53.1,0,100-25,127.6-62.7c0,0,0.1-0.2,0.1-0.2C321.3,505.2,322.4,503.5,323.5,501.8z"/>
<g>
	<polygon class="st7" points="289.6,491.5 184.5,552.1 184.5,513.4 289.6,452.8 	"/>
	<polygon class="st2" points="281.1,486.7 272.4,491.7 272.4,472.3 281.1,467.3 	"/>
	<polygon class="st8" points="256.5,491.2 268.8,484.1 268.8,481.2 256.5,488.3 	"/>
	<polygon points="256.5,496.1 268.8,489 268.8,486.1 256.5,493.1 	"/>
	<polygon class="st4" points="256.5,500.9 268.8,493.8 268.8,490.9 256.5,498 	"/>
	<path class="st4" d="M258.8,481.7c0,0.8-0.5,1.8-1.2,2.2s-1.2,0-1.2-0.9c0-0.8,0.5-1.8,1.2-2.2S258.8,480.9,258.8,481.7z"/>
	<path class="st2" d="M263.8,478.9c0,0.8-0.5,1.8-1.2,2.2c-0.6,0.4-1.2,0-1.2-0.9c0-0.8,0.5-1.8,1.2-2.2
		C263.3,477.6,263.8,478,263.8,478.9z"/>
	<path d="M268.8,476c0,0.8-0.5,1.8-1.2,2.2c-0.6,0.4-1.2,0-1.2-0.9c0-0.8,0.5-1.8,1.2-2.2C268.3,474.8,268.8,475.1,268.8,476z"/>
	<polygon class="st1" points="184.5,552.1 76.1,489.5 76.1,450.8 184.5,513.4 	"/>
	<polygon class="st9" points="184.5,513.4 76.1,450.8 181.1,390.2 289.6,452.8 	"/>
	<polygon class="st7" points="289.6,448.7 184.5,509.4 184.5,470.7 289.6,410 	"/>
	<polygon class="st2" points="281.1,443.9 272.4,448.9 272.4,429.6 281.1,424.6 	"/>
	<polygon class="st8" points="256.5,448.5 268.8,441.4 268.8,438.5 256.5,445.6 	"/>
	<polygon points="256.5,453.3 268.8,446.2 268.8,443.3 256.5,450.4 	"/>
	<polygon class="st4" points="256.5,458.1 268.8,451.1 268.8,448.1 256.5,455.2 	"/>
	<path class="st4" d="M258.8,439c0,0.8-0.5,1.8-1.2,2.2s-1.2,0-1.2-0.9s0.5-1.8,1.2-2.2S258.8,438.1,258.8,439z"/>
	<path class="st2" d="M263.8,436.1c0,0.8-0.5,1.8-1.2,2.2c-0.6,0.4-1.2,0-1.2-0.9c0-0.8,0.5-1.8,1.2-2.2
		C263.3,434.9,263.8,435.3,263.8,436.1z"/>
	<path d="M268.8,433.2c0,0.8-0.5,1.8-1.2,2.2c-0.6,0.4-1.2,0-1.2-0.9s0.5-1.8,1.2-2.2C268.3,432,268.8,432.4,268.8,433.2z"/>
	<polygon class="st1" points="184.5,509.4 76.1,446.8 76.1,408.1 184.5,470.7 	"/>
	<polygon class="st9" points="184.5,470.7 76.1,408.1 181.1,347.4 289.6,410 	"/>
	<polygon class="st7" points="289.6,406 184.5,466.6 184.5,427.9 289.6,367.3 	"/>
	<polygon class="st2" points="281.1,401.2 272.4,406.2 272.4,386.8 281.1,381.8 	"/>
	<polygon class="st8" points="256.5,405.7 268.8,398.6 268.8,395.7 256.5,402.8 	"/>
	<polygon points="256.5,410.5 268.8,403.5 268.8,400.6 256.5,407.6 	"/>
	<polygon class="st4" points="256.5,415.4 268.8,408.3 268.8,405.4 256.5,412.5 	"/>
	<path class="st4" d="M258.8,396.2c0,0.8-0.5,1.8-1.2,2.2c-0.6,0.4-1.2,0-1.2-0.9c0-0.8,0.5-1.8,1.2-2.2
		C258.3,395,258.8,395.4,258.8,396.2z"/>
	<path class="st2" d="M263.8,393.4c0,0.8-0.5,1.8-1.2,2.2c-0.6,0.4-1.2,0-1.2-0.9s0.5-1.8,1.2-2.2
		C263.3,392.1,263.8,392.5,263.8,393.4z"/>
	<path d="M268.8,390.5c0,0.8-0.5,1.8-1.2,2.2c-0.6,0.4-1.2,0-1.2-0.9c0-0.8,0.5-1.8,1.2-2.2C268.3,389.2,268.8,389.6,268.8,390.5z"
		/>
	<polygon class="st1" points="184.5,466.6 76.1,404 76.1,365.3 184.5,427.9 	"/>
	<polygon class="st9" points="184.5,427.9 76.1,365.3 181.1,304.7 289.6,367.3 	"/>
	<polygon class="st7" points="289.6,363.2 184.5,423.9 184.5,385.2 289.6,324.5 	"/>
	<polygon class="st2" points="281.1,358.4 272.4,363.4 272.4,344.1 281.1,339.1 	"/>
	<polygon class="st8" points="256.5,363 268.8,355.9 268.8,353 256.5,360 	"/>
	<polygon points="256.5,367.8 268.8,360.7 268.8,357.8 256.5,364.9 	"/>
	<polygon class="st4" points="256.5,372.6 268.8,365.5 268.8,362.6 256.5,369.7 	"/>
	<path class="st4" d="M258.8,353.5c0,0.8-0.5,1.8-1.2,2.2s-1.2,0-1.2-0.9c0-0.8,0.5-1.8,1.2-2.2S258.8,352.6,258.8,353.5z"/>
	<path class="st2" d="M263.8,350.6c0,0.8-0.5,1.8-1.2,2.2c-0.6,0.4-1.2,0-1.2-0.9c0-0.8,0.5-1.8,1.2-2.2
		C263.3,349.4,263.8,349.8,263.8,350.6z"/>
	<path d="M268.8,347.7c0,0.8-0.5,1.8-1.2,2.2c-0.6,0.4-1.2,0-1.2-0.9c0-0.8,0.5-1.8,1.2-2.2C268.3,346.5,268.8,346.9,268.8,347.7z"
		/>
	<polygon class="st1" points="184.5,423.9 76.1,361.3 76.1,322.6 184.5,385.2 	"/>
	<polygon class="st9" points="184.5,385.2 76.1,322.6 181.1,261.9 289.6,324.5 	"/>
	<polygon class="st7" points="289.6,320.4 184.5,381.1 184.5,342.4 289.6,281.8 	"/>
	<polygon class="st2" points="281.1,315.6 272.4,320.7 272.4,301.3 281.1,296.3 	"/>
	<polygon class="st8" points="256.5,320.2 268.8,313.1 268.8,310.2 256.5,317.3 	"/>
	<polygon points="256.5,325 268.8,318 268.8,315 256.5,322.1 	"/>
	<polygon class="st4" points="256.5,329.9 268.8,322.8 268.8,319.9 256.5,327 	"/>
	<path class="st4" d="M258.8,310.7c0,0.8-0.5,1.8-1.2,2.2s-1.2,0-1.2-0.9s0.5-1.8,1.2-2.2S258.8,309.9,258.8,310.7z"/>
	<path class="st2" d="M263.8,307.8c0,0.8-0.5,1.8-1.2,2.2c-0.6,0.4-1.2,0-1.2-0.9c0-0.8,0.5-1.8,1.2-2.2
		C263.3,306.6,263.8,307,263.8,307.8z"/>
	<path d="M268.8,305c0,0.8-0.5,1.8-1.2,2.2c-0.6,0.4-1.2,0-1.2-0.9s0.5-1.8,1.2-2.2C268.3,303.7,268.8,304.1,268.8,305z"/>
	<polygon class="st1" points="184.5,381.1 76.1,318.5 76.1,279.8 184.5,342.4 	"/>
	<polygon class="st9" points="184.5,342.4 76.1,279.8 181.1,219.2 289.6,281.8 	"/>
</g>
<g>
	<polygon class="st7" points="1120.5,749.8 953.2,846.4 953.2,784.8 1120.5,688.2 	"/>
	<polygon class="st2" points="1107.1,742.2 1093.2,750.2 1093.2,719.4 1107.1,711.3 	"/>
	<polygon class="st8" points="1067.9,749.4 1087.4,738.1 1087.4,733.5 1067.9,744.8 	"/>
	<polygon points="1067.9,757.1 1087.4,745.8 1087.4,741.2 1067.9,752.5 	"/>
	<polygon class="st4" points="1067.9,764.8 1087.4,753.5 1087.4,748.9 1067.9,760.2 	"/>
	<path class="st4" d="M1071.5,734.3c0,1.3-0.8,2.9-1.8,3.5c-1,0.6-1.8,0-1.8-1.4c0-1.3,0.8-2.9,1.8-3.5
		C1070.7,732.3,1071.5,733,1071.5,734.3z"/>
	<path class="st2" d="M1079.5,729.7c0,1.3-0.8,2.9-1.8,3.5s-1.8,0-1.8-1.4c0-1.3,0.8-2.9,1.8-3.5
		C1078.7,727.8,1079.5,728.4,1079.5,729.7z"/>
	<path d="M1087.4,725.2c0,1.3-0.8,2.9-1.8,3.5s-1.8,0-1.8-1.4s0.8-2.9,1.8-3.5C1086.6,723.2,1087.4,723.8,1087.4,725.2z"/>
	<polygon class="st1" points="953.2,846.4 780.6,746.7 780.6,685.1 953.2,784.8 	"/>
	<polygon class="st9" points="953.3,784.8 780.6,685.1 947.8,588.5 1120.5,688.2 	"/>
	<polygon class="st7" points="1120.5,681.7 953.2,778.3 953.2,716.7 1120.5,620.1 	"/>
	<polygon class="st2" points="1107.1,674.1 1093.2,682.1 1093.2,651.3 1107.1,643.3 	"/>
	<polygon class="st8" points="1067.9,681.3 1087.4,670.1 1087.4,665.4 1067.9,676.7 	"/>
	<polygon points="1067.9,689 1087.4,677.8 1087.4,673.1 1067.9,684.4 	"/>
	<polygon class="st4" points="1067.9,696.7 1087.4,685.4 1087.4,680.8 1067.9,692.1 	"/>
	<path class="st4" d="M1071.5,666.2c0,1.3-0.8,2.9-1.8,3.5c-1,0.6-1.8,0-1.8-1.4c0-1.3,0.8-2.9,1.8-3.5
		C1070.7,664.3,1071.5,664.9,1071.5,666.2z"/>
	<path class="st2" d="M1079.5,661.7c0,1.3-0.8,2.9-1.8,3.5s-1.8,0-1.8-1.4s0.8-2.9,1.8-3.5C1078.7,659.7,1079.5,660.3,1079.5,661.7z
		"/>
	<path d="M1087.4,657.1c0,1.3-0.8,2.9-1.8,3.5c-1,0.6-1.8,0-1.8-1.4s0.8-2.9,1.8-3.5C1086.6,655.1,1087.4,655.7,1087.4,657.1z"/>
	<polygon class="st1" points="953.2,778.3 780.6,678.6 780.6,617 953.2,716.7 	"/>
	<polygon class="st9" points="953.3,716.7 780.6,617 947.8,520.4 1120.5,620.1 	"/>
	<polygon class="st7" points="1120.5,613.6 953.2,710.2 953.2,648.6 1120.5,552 	"/>
	<polygon class="st2" points="1107.1,606 1093.2,614 1093.2,583.2 1107.1,575.2 	"/>
	<polygon class="st8" points="1067.9,613.2 1087.4,602 1087.4,597.3 1067.9,608.6 	"/>
	<polygon points="1067.9,620.9 1087.4,609.7 1087.4,605 1067.9,616.3 	"/>
	<polygon class="st4" points="1067.9,628.6 1087.4,617.4 1087.4,612.7 1067.9,624 	"/>
	<path class="st4" d="M1071.5,598.1c0,1.3-0.8,2.9-1.8,3.5c-1,0.6-1.8,0-1.8-1.4s0.8-2.9,1.8-3.5
		C1070.7,596.2,1071.5,596.8,1071.5,598.1z"/>
	<path class="st2" d="M1079.5,593.6c0,1.3-0.8,2.9-1.8,3.5c-1,0.6-1.8,0-1.8-1.4s0.8-2.9,1.8-3.5
		C1078.7,591.6,1079.5,592.2,1079.5,593.6z"/>
	<path d="M1087.4,589c0,1.3-0.8,2.9-1.8,3.5c-1,0.6-1.8,0-1.8-1.4s0.8-2.9,1.8-3.5C1086.6,587,1087.4,587.6,1087.4,589z"/>
	<polygon class="st1" points="953.2,710.2 780.6,610.5 780.6,548.9 953.2,648.6 	"/>
	<polygon class="st9" points="953.3,648.6 780.6,548.9 947.8,452.4 1120.5,552 	"/>
	<polygon class="st7" points="1120.5,545.5 953.2,642.1 953.2,580.5 1120.5,484 	"/>
	<polygon class="st2" points="1107.1,537.9 1093.2,545.9 1093.2,515.1 1107.1,507.1 	"/>
	<polygon class="st8" points="1067.9,545.2 1087.4,533.9 1087.4,529.3 1067.9,540.5 	"/>
	<polygon points="1067.9,552.9 1087.4,541.6 1087.4,537 1067.9,548.2 	"/>
	<polygon class="st4" points="1067.9,560.5 1087.4,549.3 1087.4,544.6 1067.9,555.9 	"/>
	<path class="st4" d="M1071.5,530.1c0,1.3-0.8,2.9-1.8,3.5c-1,0.6-1.8,0-1.8-1.4s0.8-2.9,1.8-3.5
		C1070.7,528.1,1071.5,528.7,1071.5,530.1z"/>
	<path class="st2" d="M1079.5,525.5c0,1.3-0.8,2.9-1.8,3.5c-1,0.6-1.8,0-1.8-1.4s0.8-2.9,1.8-3.5
		C1078.7,523.5,1079.5,524.1,1079.5,525.5z"/>
	<path d="M1087.4,520.9c0,1.3-0.8,2.9-1.8,3.5c-1,0.6-1.8,0-1.8-1.4s0.8-2.9,1.8-3.5C1086.6,518.9,1087.4,519.6,1087.4,520.9z"/>
	<polygon class="st1" points="953.2,642.1 780.6,542.5 780.6,480.9 953.2,580.5 	"/>
	<polygon class="st9" points="953.3,580.5 780.6,480.9 947.8,384.3 1120.5,484 	"/>
	<polygon class="st7" points="1120.5,477.5 953.2,574.1 953.2,512.5 1120.5,415.9 	"/>
	<polygon class="st2" points="1107.1,469.8 1093.2,477.8 1093.2,447 1107.1,439 	"/>
	<polygon class="st8" points="1067.9,477.1 1087.4,465.8 1087.4,461.2 1067.9,472.4 	"/>
	<polygon points="1067.9,484.8 1087.4,473.5 1087.4,468.9 1067.9,480.1 	"/>
	<polygon class="st4" points="1067.9,492.5 1087.4,481.2 1087.4,476.6 1067.9,487.8 	"/>
	<path class="st4" d="M1071.5,462c0,1.3-0.8,2.9-1.8,3.5c-1,0.6-1.8,0-1.8-1.4c0-1.3,0.8-2.9,1.8-3.5
		C1070.7,460,1071.5,460.6,1071.5,462z"/>
	<path class="st2" d="M1079.5,457.4c0,1.3-0.8,2.9-1.8,3.5c-1,0.6-1.8,0-1.8-1.4c0-1.3,0.8-2.9,1.8-3.5S1079.5,456.1,1079.5,457.4z"
		/>
	<path d="M1087.4,452.8c0,1.3-0.8,2.9-1.8,3.5c-1,0.6-1.8,0-1.8-1.4c0-1.3,0.8-2.9,1.8-3.5S1087.4,451.5,1087.4,452.8z"/>
	<polygon class="st1" points="953.2,574.1 780.6,474.4 780.6,412.8 953.2,512.5 	"/>
	<polygon class="st9" points="953.3,512.5 780.6,412.8 947.8,316.2 1120.5,415.9 	"/>
</g>
<g>
	<path class="st28" d="M754.1,105.3c0-32-17.9-59.8-44.2-74.1c-26.3,14.2-44.2,42.1-44.2,74.1s17.9,59.8,44.2,74.1
		C736.2,165.1,754.1,137.2,754.1,105.3z"/>
	<path class="st28" d="M794,105.3c0-39.5-27.4-72.8-64.2-81.7c-3.2,0.8-6.3,1.7-9.3,2.9c25.9,16.7,43.2,45.8,43.2,78.9
		s-17.2,62.2-43.2,78.9c3,1.1,6.1,2.1,9.3,2.9C766.6,178,794,144.8,794,105.3z"/>
	<path class="st28" d="M656.1,105.3c0-33.1,17.2-62.2,43.2-78.9c-3-1.1-6.1-2.1-9.3-2.9c-36.8,9-64.2,42.2-64.2,81.7
		s27.4,72.8,64.2,81.7c3.2-0.8,6.3-1.7,9.3-2.9C673.3,167.5,656.1,138.4,656.1,105.3z"/>
	<path class="st2" d="M709.9,179.3c-3.4,1.8-7,3.5-10.6,4.8c3,1.9,6.1,3.7,9.3,5.2c0.4,0,0.9,0,1.3,0c0.4,0,0.9,0,1.3,0
		c3.2-1.6,6.3-3.3,9.3-5.2C716.8,182.8,713.3,181.2,709.9,179.3z"/>
	<path class="st4" d="M711.2,21.2c-0.4-0.2-0.9-0.4-1.3-0.6c-0.4,0.2-0.9,0.4-1.3,0.6c0.4,0,0.9,0,1.3,0
		C710.3,21.2,710.8,21.2,711.2,21.2z"/>
	<path class="st4" d="M708.5,189.4c0.4,0.2,0.9,0.4,1.3,0.6c0.4-0.2,0.9-0.4,1.3-0.6c-0.4,0-0.9,0-1.3,0
		C709.4,189.4,709,189.4,708.5,189.4z"/>
	<path class="st2" d="M751.1,21.2c-6.7-3.3-13.8-5.8-21.3-7.4c-6.4-1.4-13.1-2.1-20-2.1c-6.8,0-13.5,0.7-20,2.1
		c-7.5,1.6-14.6,4.1-21.3,7.4c-31,15.3-52.5,47.2-52.5,84.1s21.4,68.8,52.5,84.1c6.7,3.3,13.8,5.8,21.3,7.4c6.4,1.4,13.1,2.1,20,2.1
		c6.8,0,13.5-0.7,20-2.1c7.5-1.6,14.6-4.1,21.3-7.4c31-15.3,52.5-47.2,52.5-84.1S782.2,36.5,751.1,21.2z M715,154.6h22.9
		c-6.3,8-13.9,16.3-22.9,22V154.6z M715,144.6v-34h38.9c-0.8,12-4.3,24-10,34H715z M625.9,110.6h30.3c0.7,12,3.8,24,8.8,34h-29.2
		C630.2,134.6,626.6,122.6,625.9,110.6z M706,55.6h-24.6c6.4-9,14.6-15.7,24.6-21.5V55.6z M706,65.6v35h-40.2c0.7-12,4.1-24,9.7-35
		H706z M715,65.6h29.3c5.6,11,9,23,9.7,35h-39V65.6z M656.2,100.6h-30.3c0.7-12,4.1-24,9.7-35h29.2
		C659.8,76.6,656.8,88.6,656.2,100.6z M665.8,110.6H706v34h-30.2C670.1,134.6,666.6,122.6,665.8,110.6z M763.5,110.6h30.3
		c-0.8,12-4.3,24-10,34h-29.2C759.8,134.6,762.8,122.6,763.5,110.6z M763.5,100.6c-0.6-12-3.6-24-8.6-35h29.2c5.6,11,9,23,9.7,35
		H763.5z M720.5,25.6c3-1,6.1-2.1,9.3-2.8c19.8,4.8,36.9,16.8,48.4,32.8h-28.4C742.4,43.6,732.4,34.6,720.5,25.6
		C720.5,25.6,720.5,25.6,720.5,25.6z M738.4,55.6H715V34C724,39.9,732,46.6,738.4,55.6z M705.1,28.9L705.1,28.9
		c-0.1,0-0.2-0.1-0.3-0.1C704.9,28.8,705,28.8,705.1,28.9z M689.9,23.2c3.2,0.8,6.3,1.9,9.3,3.1c0.9,0.3,1.7,0.8,2.6,1.1
		c-0.9-0.4-1.7-1-2.6-1.4c-11.9,7.6-21.9,17.6-29.3,29.6h-28.4C653,39.6,670.1,28,689.9,23.2z M706,187.6c-3-1.1-4.4-2.2-6.3-3.5
		c-3,1.1-6.4,2-9.6,2.7c-19.6-4.8-36.7-16.3-48.2-32.3h28.4c7.4,12,17.7,22,29.4,29.5c2-0.7,4.3-1.4,6.3-2.3V187.6z M681.8,154.6
		H706v22C697,170.8,688.1,162.6,681.8,154.6z M714.7,189.3L714.7,189.3C714.7,189.3,714.7,189.3,714.7,189.3
		C714.7,189.3,714.7,189.3,714.7,189.3z M729.8,186.9c-0.7,0.2-1.4,0.4-2.2,0.6C728.4,187.3,729.1,187.2,729.8,186.9
		c-3.2-0.7-6.1-1.6-9.2-2.8c-1.9,1.2-4.7,2.4-5.7,3.5v-5.9c1,0.9,3.7,1.6,5.7,2.3c11.7-7.5,21.4-17.5,28.8-29.5h28.4
		C766.3,170.6,749.4,182.1,729.8,186.9z"/>
</g>
<g>
	<g>
		<line class="st3" x1="608.8" y1="148.8" x2="368.3" y2="253.5"/>
		<g>
			<polygon class="st4" points="348.9,261.9 371.4,238.8 369.8,252.8 381.2,261.2 			"/>
		</g>
	</g>
</g>
<g>
	<g>
		<path class="st2" d="M356.5,304.1c0,0,0.2-0.4,0.5-1.2c0.3-0.8,0.7-1.9,1.4-3.4c1.4-3.1,3.7-7.4,7.7-12.2
			c3.9-4.8,9.6-9.9,16.9-14.5c3.7-2.2,7.7-4.5,12.1-6.4c2.2-1,4.5-1.9,6.8-2.8c1.2-0.5,2.4-0.8,3.6-1.3c1.2-0.4,2.4-0.9,3.7-1.2
			c1.3-0.4,2.5-0.8,3.8-1.2c1.3-0.4,2.6-0.7,3.9-1.1c2.6-0.7,5.4-1.3,8.1-1.9c5.5-1.1,11.3-2.2,17.3-2.9c3-0.4,6-0.7,9.1-1.1
			c3.1-0.3,6.2-0.6,9.3-0.8c6.3-0.5,12.7-0.6,19.2-0.8c13.1-0.1,26.5,0.3,40.2,1.5c13.7,1.1,27.5,2.7,41.2,4.9
			c13.7,2.1,27.4,4.7,40.8,7.8c13.4,3,26.5,6.4,39,10c25.1,7.3,48.1,15.8,67.5,24.3c9.7,4.2,18.4,8.5,26.1,12.5
			c7.7,4,14.2,7.8,19.6,11.1c5.3,3.3,9.5,6,12.3,7.9c2.8,1.9,4.3,3,4.3,3l-15.3,20.3c0,0-1.3-1-3.7-2.9c-2.4-1.9-6-4.5-10.8-7.8
			c-4.8-3.2-10.7-7.1-17.6-11.2c-7-4.1-15-8.5-24-13c-18-9-39.8-18.3-63.7-26.7c-12-4.2-24.5-8.1-37.4-11.7
			c-12.9-3.6-26.1-6.8-39.4-9.6c-13.3-2.8-26.7-5.1-39.9-6.8c-13.3-1.8-26.4-2.9-39.1-3.4c-6.3-0.2-12.6-0.4-18.7-0.2
			c-3.1,0-6.1,0.2-9.1,0.3c-3,0.2-5.9,0.3-8.8,0.6c-5.8,0.4-11.4,1.2-16.8,2c-2.7,0.5-5.3,0.9-7.9,1.5c-1.3,0.3-2.6,0.5-3.8,0.8
			c-1.2,0.3-2.5,0.6-3.7,0.9c-1.2,0.3-2.4,0.6-3.6,1c-1.2,0.4-2.4,0.7-3.5,1c-2.3,0.8-4.5,1.5-6.6,2.4c-4.3,1.6-8.2,3.5-11.8,5.4
			c-7.1,4-12.6,8.5-16.5,12.8c-3.9,4.3-6.3,8.3-7.7,10.9c-0.7,1.4-1.2,2.6-1.5,3.3c-0.3,0.8-0.5,1.2-0.5,1.2L356.5,304.1z"/>
		<g>
			<polygon class="st2" points="803.6,389.5 719.7,351.1 759,342 770.6,303.4 			"/>
		</g>
	</g>
</g>
</svg>
