<?xml version="1.0" encoding="utf-8"?>
<!-- Generator: Adobe Illustrator 20.0.0, SVG Export Plug-In . SVG Version: 6.00 Build 0)  -->
<!DOCTYPE svg PUBLIC "-//W3C//DTD SVG 1.1//EN" "http://www.w3.org/Graphics/SVG/1.1/DTD/svg11.dtd">
<svg version="1.1" id="Layer_1" xmlns="http://www.w3.org/2000/svg" xmlns:xlink="http://www.w3.org/1999/xlink" x="0px" y="0px"
	 viewBox="0 0 1598 836.2" style="enable-background:new 0 0 1598 836.2;" xml:space="preserve">
<style type="text/css">
	.st0{fill:#C82027;}
	.st1{fill:#D1D3D4;}
	.st2{fill:#7F161F;}
	.st3{fill:none;stroke:#FFFFFF;stroke-width:3;stroke-miterlimit:10;}
	.st4{fill:#FFFFFF;}
	.st5{fill:#2B2B2B;}
	.st6{fill:none;stroke:#000000;stroke-width:3;stroke-miterlimit:10;}
	.st7{fill:#E6E7E8;}
	.st8{fill:#A7A9AC;}
	.st9{fill:#F1F2F2;}
	.st10{fill:#414042;}
	.st11{fill:#58595B;}
	.st12{fill:#3F3F41;stroke:#3F3F41;stroke-width:0.3081;stroke-miterlimit:10;}
	.st13{fill:#58585A;stroke:#58585A;stroke-width:0.3081;stroke-miterlimit:10;}
	.st14{fill:#58585A;}
	.st15{fill:none;stroke:#58585A;stroke-width:0.6162;stroke-miterlimit:10;}
	.st16{fill:#FFFFFF;stroke:#3F3F41;stroke-width:0.3081;stroke-miterlimit:10;}
	.st17{fill:#3F3F41;}
	.st18{fill:#6D6E71;}
	.st19{fill:#212121;}
	.st20{fill:#DDDDDD;}
	.st21{fill:#B7B7B7;}
	.st22{fill:#F04A4A;}
	.st23{fill:#FDB523;}
	.st24{fill:#4AB749;}
	.st25{fill:#CCCCCB;}
	.st26{fill:#636464;}
	.st27{fill:none;stroke:#7F161F;stroke-width:3;stroke-miterlimit:10;}
	.st28{fill:none;}
</style>
<g>
	<g>
		<polygon class="st7" points="351.9,720.8 182.8,818.4 182.8,756.2 351.9,658.6 		"/>
		<polygon class="st2" points="338.3,713.1 324.3,721.2 324.3,690 338.3,681.9 		"/>
		<polygon class="st8" points="298.7,720.4 318.4,709 318.4,704.3 298.7,715.7 		"/>
		<polygon points="298.7,728.2 318.4,716.8 318.4,712.1 298.7,723.5 		"/>
		<polygon class="st4" points="298.7,736 318.4,724.6 318.4,719.9 298.7,731.3 		"/>
		<path class="st4" d="M302.4,705.2c0,1.4-0.8,2.9-1.9,3.5s-1.9,0-1.9-1.4s0.8-2.9,1.9-3.5C301.5,703.2,302.4,703.8,302.4,705.2z"/>
		<path class="st2" d="M310.4,700.5c0,1.4-0.8,2.9-1.9,3.5c-1,0.6-1.9,0-1.9-1.4s0.8-2.9,1.9-3.5
			C309.6,698.5,310.4,699.2,310.4,700.5z"/>
		<path d="M318.4,695.9c0,1.4-0.8,2.9-1.9,3.5c-1,0.6-1.9,0-1.9-1.4s0.8-2.9,1.9-3.5C317.6,693.9,318.4,694.5,318.4,695.9z"/>
		<polygon class="st1" points="182.8,818.4 8.3,717.7 8.3,655.4 182.8,756.2 		"/>
		<polygon class="st9" points="182.8,756.2 8.3,655.4 177.4,557.8 351.9,658.6 		"/>
		<polygon class="st7" points="351.9,652 182.8,749.6 182.8,687.4 351.9,589.8 		"/>
		<polygon class="st2" points="338.3,644.3 324.3,652.4 324.3,621.2 338.3,613.1 		"/>
		<polygon class="st8" points="298.7,651.6 318.4,640.2 318.4,635.5 298.7,646.9 		"/>
		<polygon points="298.7,659.4 318.4,648 318.4,643.3 298.7,654.7 		"/>
		<polygon class="st4" points="298.7,667.2 318.4,655.8 318.4,651.1 298.7,662.5 		"/>
		<path class="st4" d="M302.4,636.4c0,1.4-0.8,2.9-1.9,3.5c-1,0.6-1.9,0-1.9-1.4s0.8-2.9,1.9-3.5C301.5,634.4,302.4,635,302.4,636.4
			z"/>
		<path class="st2" d="M310.4,631.7c0,1.4-0.8,2.9-1.9,3.5c-1,0.6-1.9,0-1.9-1.4s0.8-2.9,1.9-3.5S310.4,630.4,310.4,631.7z"/>
		<path d="M318.4,627.1c0,1.4-0.8,2.9-1.9,3.5s-1.9,0-1.9-1.4s0.8-2.9,1.9-3.5S318.4,625.7,318.4,627.1z"/>
		<polygon class="st1" points="182.8,749.6 8.3,648.9 8.3,586.6 182.8,687.4 		"/>
		<polygon class="st9" points="182.8,687.4 8.3,586.6 177.4,489 351.9,589.8 		"/>
		<polygon class="st7" points="351.9,583.2 182.8,680.8 182.8,618.6 351.9,521 		"/>
		<polygon class="st2" points="338.3,575.5 324.3,583.6 324.3,552.4 338.3,544.3 		"/>
		<polygon class="st8" points="298.7,582.8 318.4,571.4 318.4,566.7 298.7,578.1 		"/>
		<polygon points="298.7,590.6 318.4,579.2 318.4,574.5 298.7,585.9 		"/>
		<polygon class="st4" points="298.7,598.4 318.4,587 318.4,582.3 298.7,593.7 		"/>
		<path class="st4" d="M302.4,567.5c0,1.4-0.8,2.9-1.9,3.5c-1,0.6-1.9,0-1.9-1.4c0-1.4,0.8-2.9,1.9-3.5S302.4,566.2,302.4,567.5z"/>
		<path class="st2" d="M310.4,562.9c0,1.4-0.8,2.9-1.9,3.5s-1.9,0-1.9-1.4s0.8-2.9,1.9-3.5C309.6,560.9,310.4,561.6,310.4,562.9z"/>
		<path d="M318.4,558.3c0,1.4-0.8,2.9-1.9,3.5c-1,0.6-1.9,0-1.9-1.4s0.8-2.9,1.9-3.5C317.6,556.3,318.4,556.9,318.4,558.3z"/>
		<polygon class="st1" points="182.8,680.8 8.3,580.1 8.3,517.8 182.8,618.6 		"/>
		<polygon class="st9" points="182.8,618.6 8.3,517.8 177.4,420.2 351.9,521 		"/>
		<polygon class="st7" points="351.9,514.4 182.8,612 182.8,549.8 351.9,452.1 		"/>
		<polygon class="st2" points="338.3,506.7 324.3,514.8 324.3,483.6 338.3,475.5 		"/>
		<polygon class="st8" points="298.7,514 318.4,502.6 318.4,497.9 298.7,509.3 		"/>
		<polygon points="298.7,521.8 318.4,510.4 318.4,505.7 298.7,517.1 		"/>
		<polygon class="st4" points="298.7,529.6 318.4,518.2 318.4,513.5 298.7,524.9 		"/>
		<path class="st4" d="M302.4,498.7c0,1.4-0.8,2.9-1.9,3.5c-1,0.6-1.9,0-1.9-1.4s0.8-2.9,1.9-3.5
			C301.5,496.8,302.4,497.4,302.4,498.7z"/>
		<path class="st2" d="M310.4,494.1c0,1.4-0.8,2.9-1.9,3.5c-1,0.6-1.9,0-1.9-1.4s0.8-2.9,1.9-3.5S310.4,492.8,310.4,494.1z"/>
		<path d="M318.4,489.5c0,1.4-0.8,2.9-1.9,3.5c-1,0.6-1.9,0-1.9-1.4s0.8-2.9,1.9-3.5C317.6,487.5,318.4,488.1,318.4,489.5z"/>
		<polygon class="st1" points="182.8,612 8.3,511.3 8.3,449 182.8,549.8 		"/>
		<polygon class="st9" points="182.8,549.8 8.3,449 177.4,351.4 351.9,452.1 		"/>
		<polygon class="st7" points="351.9,445.6 182.8,543.2 182.8,481 351.9,383.3 		"/>
		<polygon class="st2" points="338.3,437.9 324.3,446 324.3,414.8 338.3,406.7 		"/>
		<polygon class="st8" points="298.7,445.2 318.4,433.8 318.4,429.1 298.7,440.5 		"/>
		<polygon points="298.7,453 318.4,441.6 318.4,436.9 298.7,448.3 		"/>
		<polygon class="st4" points="298.7,460.7 318.4,449.4 318.4,444.7 298.7,456.1 		"/>
		<path class="st4" d="M302.4,429.9c0,1.4-0.8,2.9-1.9,3.5s-1.9,0-1.9-1.4c0-1.4,0.8-2.9,1.9-3.5C301.5,428,302.4,428.6,302.4,429.9
			z"/>
		<path class="st2" d="M310.4,425.3c0,1.4-0.8,2.9-1.9,3.5c-1,0.6-1.9,0-1.9-1.4s0.8-2.9,1.9-3.5S310.4,424,310.4,425.3z"/>
		<path d="M318.4,420.7c0,1.4-0.8,2.9-1.9,3.5s-1.9,0-1.9-1.4s0.8-2.9,1.9-3.5C317.6,418.7,318.4,419.3,318.4,420.7z"/>
		<polygon class="st1" points="182.8,543.2 8.3,442.5 8.3,380.2 182.8,481 		"/>
		<polygon class="st9" points="182.8,481 8.3,380.2 177.4,282.6 351.9,383.3 		"/>
	</g>
	<g>
		<polygon class="st7" points="1045.9,720.8 876.9,818.4 876.9,756.2 1045.9,658.6 		"/>
		<polygon class="st2" points="1032.4,713.1 1018.4,721.2 1018.4,690 1032.4,681.9 		"/>
		<polygon class="st8" points="992.7,720.4 1012.5,709 1012.5,704.3 992.7,715.7 		"/>
		<polygon points="992.7,728.2 1012.5,716.8 1012.5,712.1 992.7,723.5 		"/>
		<polygon class="st4" points="992.7,736 1012.5,724.6 1012.5,719.9 992.7,731.3 		"/>
		<path class="st4" d="M996.4,705.2c0,1.4-0.8,2.9-1.9,3.5c-1,0.6-1.9,0-1.9-1.4s0.8-2.9,1.9-3.5
			C995.6,703.2,996.4,703.8,996.4,705.2z"/>
		<path class="st2" d="M1004.4,700.5c0,1.4-0.8,2.9-1.9,3.5c-1,0.6-1.9,0-1.9-1.4s0.8-2.9,1.9-3.5
			C1003.6,698.5,1004.4,699.2,1004.4,700.5z"/>
		<path d="M1012.5,695.9c0,1.4-0.8,2.9-1.9,3.5c-1,0.6-1.9,0-1.9-1.4s0.8-2.9,1.9-3.5C1011.6,693.9,1012.5,694.5,1012.5,695.9z"/>
		<polygon class="st1" points="876.9,818.4 702.4,717.7 702.4,655.4 876.9,756.2 		"/>
		<polygon class="st9" points="876.9,756.2 702.4,655.4 871.4,557.8 1045.9,658.6 		"/>
		<polygon class="st7" points="1045.9,652 876.9,749.6 876.9,687.4 1045.9,589.8 		"/>
		<polygon class="st2" points="1032.4,644.3 1018.4,652.4 1018.4,621.2 1032.4,613.1 		"/>
		<polygon class="st8" points="992.7,651.6 1012.5,640.2 1012.5,635.5 992.7,646.9 		"/>
		<polygon points="992.7,659.4 1012.5,648 1012.5,643.3 992.7,654.7 		"/>
		<polygon class="st4" points="992.7,667.2 1012.5,655.8 1012.5,651.1 992.7,662.5 		"/>
		<path class="st4" d="M996.4,636.4c0,1.4-0.8,2.9-1.9,3.5c-1,0.6-1.9,0-1.9-1.4s0.8-2.9,1.9-3.5C995.6,634.4,996.4,635,996.4,636.4
			z"/>
		<path class="st2" d="M1004.4,631.7c0,1.4-0.8,2.9-1.9,3.5c-1,0.6-1.9,0-1.9-1.4s0.8-2.9,1.9-3.5
			C1003.6,629.7,1004.4,630.4,1004.4,631.7z"/>
		<path d="M1012.5,627.1c0,1.4-0.8,2.9-1.9,3.5c-1,0.6-1.9,0-1.9-1.4s0.8-2.9,1.9-3.5C1011.6,625.1,1012.5,625.7,1012.5,627.1z"/>
		<polygon class="st1" points="876.9,749.6 702.4,648.9 702.4,586.6 876.9,687.4 		"/>
		<polygon class="st9" points="876.9,687.4 702.4,586.6 871.4,489 1045.9,589.8 		"/>
		<polygon class="st7" points="1045.9,583.2 876.9,680.8 876.9,618.6 1045.9,521 		"/>
		<polygon class="st2" points="1032.4,575.5 1018.4,583.6 1018.4,552.4 1032.4,544.3 		"/>
		<polygon class="st8" points="992.7,582.8 1012.5,571.4 1012.5,566.7 992.7,578.1 		"/>
		<polygon points="992.7,590.6 1012.5,579.2 1012.5,574.5 992.7,585.9 		"/>
		<polygon class="st4" points="992.7,598.4 1012.5,587 1012.5,582.3 992.7,593.7 		"/>
		<path class="st4" d="M996.4,567.5c0,1.4-0.8,2.9-1.9,3.5c-1,0.6-1.9,0-1.9-1.4c0-1.4,0.8-2.9,1.9-3.5
			C995.6,565.6,996.4,566.2,996.4,567.5z"/>
		<path class="st2" d="M1004.4,562.9c0,1.4-0.8,2.9-1.9,3.5c-1,0.6-1.9,0-1.9-1.4s0.8-2.9,1.9-3.5
			C1003.6,560.9,1004.4,561.6,1004.4,562.9z"/>
		<path d="M1012.5,558.3c0,1.4-0.8,2.9-1.9,3.5c-1,0.6-1.9,0-1.9-1.4s0.8-2.9,1.9-3.5C1011.6,556.3,1012.5,556.9,1012.5,558.3z"/>
		<polygon class="st1" points="876.9,680.8 702.4,580.1 702.4,517.8 876.9,618.6 		"/>
		<polygon class="st9" points="876.9,618.6 702.4,517.8 871.4,420.2 1045.9,521 		"/>
		<polygon class="st7" points="1045.9,514.4 876.9,612 876.9,549.8 1045.9,452.1 		"/>
		<polygon class="st2" points="1032.4,506.7 1018.4,514.8 1018.4,483.6 1032.4,475.5 		"/>
		<polygon class="st8" points="992.7,514 1012.5,502.6 1012.5,497.9 992.7,509.3 		"/>
		<polygon points="992.7,521.8 1012.5,510.4 1012.5,505.7 992.7,517.1 		"/>
		<polygon class="st4" points="992.7,529.6 1012.5,518.2 1012.5,513.5 992.7,524.9 		"/>
		<path class="st4" d="M996.4,498.7c0,1.4-0.8,2.9-1.9,3.5c-1,0.6-1.9,0-1.9-1.4s0.8-2.9,1.9-3.5
			C995.6,496.8,996.4,497.4,996.4,498.7z"/>
		<path class="st2" d="M1004.4,494.1c0,1.4-0.8,2.9-1.9,3.5c-1,0.6-1.9,0-1.9-1.4s0.8-2.9,1.9-3.5
			C1003.6,492.1,1004.4,492.8,1004.4,494.1z"/>
		<path d="M1012.5,489.5c0,1.4-0.8,2.9-1.9,3.5c-1,0.6-1.9,0-1.9-1.4s0.8-2.9,1.9-3.5C1011.6,487.5,1012.5,488.1,1012.5,489.5z"/>
		<polygon class="st1" points="876.9,612 702.4,511.3 702.4,449 876.9,549.8 		"/>
		<polygon class="st9" points="876.9,549.8 702.4,449 871.4,351.4 1045.9,452.1 		"/>
		<polygon class="st7" points="1045.9,445.6 876.9,543.2 876.9,481 1045.9,383.3 		"/>
		<polygon class="st2" points="1032.4,437.9 1018.4,446 1018.4,414.8 1032.4,406.7 		"/>
		<polygon class="st8" points="992.7,445.2 1012.5,433.8 1012.5,429.1 992.7,440.5 		"/>
		<polygon points="992.7,453 1012.5,441.6 1012.5,436.9 992.7,448.3 		"/>
		<polygon class="st4" points="992.7,460.7 1012.5,449.4 1012.5,444.7 992.7,456.1 		"/>
		<path class="st4" d="M996.4,429.9c0,1.4-0.8,2.9-1.9,3.5c-1,0.6-1.9,0-1.9-1.4c0-1.4,0.8-2.9,1.9-3.5
			C995.6,428,996.4,428.6,996.4,429.9z"/>
		<path class="st2" d="M1004.4,425.3c0,1.4-0.8,2.9-1.9,3.5c-1,0.6-1.9,0-1.9-1.4s0.8-2.9,1.9-3.5
			C1003.6,423.3,1004.4,424,1004.4,425.3z"/>
		<path d="M1012.5,420.7c0,1.4-0.8,2.9-1.9,3.5c-1,0.6-1.9,0-1.9-1.4s0.8-2.9,1.9-3.5C1011.6,418.7,1012.5,419.3,1012.5,420.7z"/>
		<polygon class="st1" points="876.9,543.2 702.4,442.5 702.4,380.2 876.9,481 		"/>
		<polygon class="st9" points="876.9,481 702.4,380.2 871.4,282.6 1045.9,383.3 		"/>
	</g>
	<path class="st2" d="M574,640.8c0.1-0.2,0.2-0.4,0.3-0.5c0.2-0.3,0.4-0.6,0.6-0.9c2.2-3.7,3.9-7.6,5.1-11.8
		c4.6-16.8,3.7-27.8,3.4-38.1c-0.6-19.3-24.7-37.4-28.5-59.1c-6.5,10.7-3.3,30-3.3,30s-8.6-21.1-8.9-29.7
		c-0.3-8.6,2.4-23.2,2.4-23.2l-14.9,34.8c0,0,2.1-25.3-35.4-40.7c14.6,21.7,0,49-3.6,57.4c-3.6,8.3-4.3,27.5-4.3,27.5
		s-6.4-11.1-3.2-41.4c-24.4,45.2-12.5,78.3,4.8,99.4c0.1,0.2,0.3,0.6,0.4,0.7c0.3,0.3,0.6,0.2,0.9,1.2h0c9.4,10,23.9,17.4,40.1,17.4
		c17.8,0,33.5-8.4,42.7-21c0,0,0-0.1,0-0.1C573.2,642,573.6,641.4,574,640.8z"/>
	<g>
		<path class="st7" d="M459.8,613.2H356v11h107.5C462.1,620.2,460.8,617.2,459.8,613.2z"/>
		<path class="st7" d="M596.1,613.2c-0.5,3-1.1,7-2,11H697v-11H596.1z"/>
	</g>
</g>
<g>
	<polygon class="st9" points="1403,465.1 1151.4,319.9 1331.5,215.9 1583.1,361.2 	"/>
	<polygon class="st7" points="1438.6,432.2 1208.4,299.3 1319.2,235.3 1549.4,368.2 	"/>
	<polygon class="st7" points="1345.7,386.4 1287.8,353 1254.7,372.1 1312.5,405.5 	"/>
	<g>
		<polygon class="st11" points="1324.5,251.6 1310.8,243.7 1316.2,240.6 1329.9,248.5 		"/>
		<polygon class="st11" points="1340.7,261 1326.9,253.1 1332.4,249.9 1346.1,257.9 		"/>
		<polygon class="st11" points="1356.8,270.3 1343.1,262.4 1348.5,259.3 1362.3,267.2 		"/>
		<polygon class="st11" points="1373,279.7 1359.3,271.7 1364.7,268.6 1378.4,276.5 		"/>
		<polygon class="st11" points="1389.2,289 1375.5,281.1 1380.9,278 1394.6,285.9 		"/>
		<polygon class="st11" points="1405.4,298.4 1391.7,290.4 1397.1,287.3 1410.8,295.2 		"/>
		<polygon class="st11" points="1421.6,307.7 1407.9,299.8 1413.3,296.7 1427,304.6 		"/>
		<polygon class="st11" points="1437.8,317 1424.1,309.1 1429.5,306 1443.2,313.9 		"/>
		<polygon class="st11" points="1454,326.4 1440.2,318.5 1445.7,315.3 1459.4,323.3 		"/>
		<polygon class="st11" points="1470.1,335.7 1456.4,327.8 1461.8,324.7 1475.6,332.6 		"/>
		<polygon class="st11" points="1486.3,345.1 1472.6,337.2 1478,334 1491.7,342 		"/>
		<polygon class="st11" points="1502.5,354.4 1488.8,346.5 1494.2,343.4 1507.9,351.3 		"/>
		<polygon class="st11" points="1441.5,426.8 1433,421.9 1439.6,418.1 1448.1,423 		"/>
		<polygon class="st11" points="1518.7,363.8 1505,355.9 1510.4,352.7 1524.1,360.6 		"/>
		<polygon class="st11" points="1534.9,373.1 1521.2,365.2 1526.6,362.1 1540.3,370 		"/>
		<polygon class="st11" points="1431.5,421.1 1423,416.2 1429.6,412.3 1438.2,417.3 		"/>
		<polygon class="st11" points="1440,416.2 1431.5,411.3 1438.2,407.4 1446.7,412.3 		"/>
		<polygon class="st11" points="1421.5,415.3 1413,410.4 1419.7,406.6 1428.2,411.5 		"/>
		<polygon class="st11" points="1307.6,262 1293.3,253.8 1308.5,245 1322.7,253.2 		"/>
		<polygon class="st11" points="1324.3,271.7 1310.1,263.5 1325.3,254.7 1339.5,262.9 		"/>
		<polygon class="st11" points="1341.1,281.4 1326.9,273.2 1342.1,264.4 1356.3,272.6 		"/>
		<polygon class="st11" points="1357.9,291.1 1343.7,282.8 1358.9,274.1 1373.1,282.3 		"/>
		<polygon class="st11" points="1231.7,305.8 1217.5,297.5 1232.7,288.8 1246.9,297 		"/>
		<polygon class="st11" points="1248.5,315.4 1234.3,307.2 1249.5,298.5 1263.7,306.7 		"/>
		<polygon class="st11" points="1265.3,325.1 1251.1,316.9 1266.3,308.2 1280.5,316.4 		"/>
		<polygon class="st11" points="1411.4,409.5 1397.2,401.3 1412.4,392.5 1426.6,400.8 		"/>
		<polygon class="st11" points="1285.3,336.7 1267.9,326.6 1283,317.9 1300.4,327.9 		"/>
		<polygon class="st11" points="1393.5,399.2 1376.1,389.1 1391.3,380.4 1408.7,390.4 		"/>
		<polygon class="st11" points="1373.4,387.6 1287.3,337.8 1302.5,329.1 1388.6,378.8 		"/>
		<polygon class="st11" points="1374.7,300.7 1360.5,292.5 1375.6,283.8 1389.9,292 		"/>
		<polygon class="st11" points="1391.5,310.4 1377.3,302.2 1392.4,293.5 1406.7,301.7 		"/>
		<polygon class="st11" points="1408.3,320.1 1394,311.9 1409.2,303.2 1423.4,311.4 		"/>
		<polygon class="st11" points="1425.1,329.8 1410.8,321.6 1426,312.8 1440.2,321.1 		"/>
		<polygon class="st11" points="1441.8,339.5 1427.6,331.3 1442.8,322.5 1457,330.8 		"/>
		<polygon class="st11" points="1458.6,349.2 1444.4,341 1459.6,332.2 1473.8,340.4 		"/>
		<polygon class="st11" points="1475.4,358.9 1461.2,350.7 1476.3,341.9 1490.6,350.1 		"/>
		<polygon class="st11" points="1492.2,368.6 1478,360.4 1493.1,351.6 1507.4,359.8 		"/>
		<polygon class="st11" points="1517.5,383.2 1496.5,371 1511.6,362.3 1532.6,374.4 		"/>
		<g>
			<polygon class="st11" points="1298.5,278.4 1274.3,264.5 1289.5,255.7 1313.6,269.6 			"/>
			<polygon class="st11" points="1316.1,288.6 1302.1,280.5 1317.2,271.7 1331.3,279.9 			"/>
			<polygon class="st11" points="1332.7,298.2 1318.7,290.1 1333.8,281.3 1347.9,289.4 			"/>
			<polygon class="st11" points="1349.3,307.8 1335.3,299.7 1350.4,290.9 1364.5,299 			"/>
			<polygon class="st11" points="1365.9,317.4 1351.9,309.2 1367,300.5 1381.1,308.6 			"/>
			<polygon class="st11" points="1382.5,326.9 1368.5,318.8 1383.6,310.1 1397.7,318.2 			"/>
			<polygon class="st11" points="1399.1,336.5 1385.1,328.4 1400.2,319.6 1414.3,327.8 			"/>
			<polygon class="st11" points="1415.7,346.1 1401.7,338 1416.8,329.2 1430.9,337.3 			"/>
			<polygon class="st11" points="1432.3,355.7 1418.3,347.6 1433.4,338.8 1447.5,346.9 			"/>
			<polygon class="st11" points="1448.9,365.3 1434.9,357.1 1450,348.4 1464.1,356.5 			"/>
			<polygon class="st11" points="1465.5,374.8 1451.4,366.7 1466.6,358 1480.7,366.1 			"/>
			<polygon class="st11" points="1482.1,384.4 1468,376.3 1483.2,367.6 1497.3,375.7 			"/>
			<polygon class="st11" points="1498.7,394 1484.6,385.9 1499.8,377.1 1513.9,385.3 			"/>
		</g>
		<g>
			<polygon class="st11" points="1285.6,292.6 1255.6,275.3 1270.7,266.6 1300.7,283.9 			"/>
			<polygon class="st11" points="1302.6,302.4 1288.5,294.3 1303.7,285.6 1317.7,293.7 			"/>
			<polygon class="st11" points="1319.2,312 1305.1,303.9 1320.3,295.2 1334.3,303.3 			"/>
			<polygon class="st11" points="1335.8,321.6 1321.7,313.5 1336.9,304.7 1350.9,312.9 			"/>
			<polygon class="st11" points="1352.4,331.2 1338.3,323.1 1353.5,314.3 1367.5,322.4 			"/>
			<polygon class="st11" points="1369,340.8 1354.9,332.7 1370.1,323.9 1384.1,332 			"/>
			<polygon class="st11" points="1385.6,350.4 1371.5,342.2 1386.7,333.5 1400.7,341.6 			"/>
			<polygon class="st11" points="1402.2,359.9 1388.1,351.8 1403.3,343.1 1417.3,351.2 			"/>
			<polygon class="st11" points="1418.8,369.5 1404.7,361.4 1419.9,352.6 1433.9,360.8 			"/>
			<polygon class="st11" points="1435.3,379.1 1421.3,371 1436.4,362.2 1450.5,370.3 			"/>
			<polygon class="st11" points="1452.6,389.1 1437.9,380.6 1453,371.8 1467.8,380.3 			"/>
			<polygon class="st11" points="1479.9,404.8 1456.9,391.5 1472.1,382.8 1495.1,396.1 			"/>
		</g>
		<g>
			<polygon class="st11" points="1275.2,309.1 1236.1,286.5 1251.3,277.8 1290.4,300.3 			"/>
			<polygon class="st11" points="1293.2,319.5 1279.2,311.4 1294.3,302.6 1308.4,310.8 			"/>
			<polygon class="st11" points="1309.8,329.1 1295.8,321 1310.9,312.2 1325,320.3 			"/>
			<polygon class="st11" points="1326.4,338.7 1312.3,330.6 1327.5,321.8 1341.6,329.9 			"/>
			<polygon class="st11" points="1343,348.3 1328.9,340.1 1344.1,331.4 1358.2,339.5 			"/>
			<polygon class="st11" points="1359.6,357.8 1345.5,349.7 1360.7,341 1374.8,349.1 			"/>
			<polygon class="st11" points="1376.2,367.4 1362.1,359.3 1377.3,350.5 1391.4,358.7 			"/>
			<polygon class="st11" points="1392.8,377 1378.7,368.9 1393.9,360.1 1408,368.2 			"/>
			<polygon class="st11" points="1409.4,386.6 1395.3,378.5 1410.5,369.7 1424.6,377.8 			"/>
			<polygon class="st11" points="1425.5,395.9 1411.4,387.7 1426.6,379 1440.6,387.1 			"/>
			<polygon class="st11" points="1460.5,416.1 1427,396.8 1442.2,388 1475.6,407.3 			"/>
		</g>
	</g>
	<polygon class="st1" points="1403,474.2 1151.4,328.9 1151.4,319.9 1403,465.2 	"/>
	<polygon class="st7" points="1583.1,370.2 1403,474.2 1403,465.2 1583.1,361.2 	"/>
	<polygon class="st7" points="1585.6,359.4 1583,361.1 1583,153.1 1585.6,151.5 	"/>
	<polygon class="st19" points="1583,361 1331.4,215.7 1331.4,7.8 1583,153 	"/>
	<polygon class="st20" points="1572.2,337.9 1342.1,205 1342.1,30.9 1572.2,163.8 	"/>
	<polygon class="st21" points="1572.2,170.7 1342.1,37.8 1342.1,30.9 1572.2,163.8 	"/>
	<path class="st22" d="M1347.5,37.5c0,1.1-0.6,1.5-1.4,1.1s-1.4-1.7-1.4-2.7c0-1.1,0.6-1.5,1.4-1.1S1347.5,36.4,1347.5,37.5z"/>
	<path class="st23" d="M1351.8,40c0,1.1-0.6,1.5-1.4,1.1c-0.8-0.5-1.4-1.7-1.4-2.7c0-1.1,0.6-1.5,1.4-1.1
		C1351.1,37.7,1351.8,38.9,1351.8,40z"/>
	<path class="st24" d="M1356.1,42.4c0,1.1-0.6,1.5-1.4,1.1s-1.4-1.7-1.4-2.7c0-1.1,0.6-1.5,1.4-1.1S1356.1,41.4,1356.1,42.4z"/>
	<polygon class="st25" points="1572.2,173.7 1342.1,41.6 1342.1,205.7 1572.2,337.9 	"/>
	<polygon class="st4" points="1498,280.1 1396.9,221.7 1396.9,214.1 1498,272.5 	"/>
	<polygon class="st2" points="1475.6,267 1396.9,221.7 1396.9,214.1 1475.6,259.4 	"/>
	<polygon class="st9" points="1583,153 1585.6,151.5 1334,6.2 1331.4,7.8 	"/>
	<path class="st2" d="M1457.7,150.2c-1.8-2.2-3.7-4.1-5.7-5.8c-1.5-1.2-3-2.3-4.5-3.2c-1.5-0.9-3.1-1.6-4.5-2
		c-2-0.7-3.9-0.9-5.7-0.9c-8.4,0.4-14.2,8.3-14.2,21.4c0,13.1,5.8,27.7,14.2,37.7c1.8,2.2,3.7,4.1,5.7,5.8c1.5,1.2,3,2.3,4.5,3.2
		c1.5,0.9,3.1,1.6,4.5,2c2,0.7,3.9,0.9,5.7,0.9c8.4-0.4,14.2-8.3,14.2-21.4C1471.9,174.8,1466.1,160.2,1457.7,150.2z M1469.6,186
		l-6.8-3.9c-0.1-4.5-0.9-10-2.4-14.8l6.5,3.8C1468.6,176,1469.6,181,1469.6,186z M1452,147.4c5.5,4.7,10.2,11.4,13.4,19.2l-6.3-3.7
		c-2.2-5.7-5.2-11.3-8.7-16c-0.5-0.7-1.1-1.4-1.7-2.1C1449.8,145.6,1450.9,146.5,1452,147.4z M1448.5,144.8c0,0,0.1,0.1,0.1,0.1
		C1448.6,144.9,1448.5,144.9,1448.5,144.8L1448.5,144.8z M1449,157.2v-9.1c3,3.9,5.8,8.8,7.8,13.5 M1458.2,165.7
		c1.6,4.9,2.7,10,2.7,15l-12-6.9v-13.6 M1449,177.3l11.7,6.9c-0.3,3.8-1.1,7.3-2.5,9.9l-9.2-5.4V177.3z M1449,192.2l7.6,4.4
		c-2,2.3-4.6,3.8-7.6,4.1V192.2z M1448.9,202.4c-0.1-0.1-0.3-0.3-0.4-0.4l0,0C1448.6,202.1,1448.8,202.3,1448.9,202.4z M1447,159.1
		v13.4l-12.3-6.9c0.1-4.9,1.2-8.9,2.8-11.9L1447,159.1z M1439.4,151.2c2-2.3,4.6-3.9,7.6-4.3v8.7L1439.4,151.2z M1447,176v11.4
		l-9.5-5.3c-1.4-4.3-2.1-8.8-2.5-13L1447,176z M1447,190.9v8.4c-3-3.8-5.5-8.1-7.5-12.7L1447,190.9z M1446.3,200.8L1446.3,200.8
		c-0.1,0-0.2,0-0.2,0C1446.1,200.8,1446.2,200.8,1446.3,200.8z M1442.9,142.2c1.1,0.3,2.5,0.8,3.7,1.3c0,0,0.4,0,0.4,0v0.1
		c0,0-0.4,0-0.4,0c-0.6,0.2-1.3,0-1.8,0.1c-3.5,0.6-6.6,2.7-8.8,5.9l-6.4-3.7C1432.8,141.8,1437.5,140.5,1442.9,142.2z
		 M1427.9,148.5l6.6,3.8c-1.5,3.1-2.3,7.6-2.4,12.1l-6.8-3.9C1425.3,155.4,1426.3,151.5,1427.9,148.5z M1425.4,163.9l6.8,3.9
		c0.3,4.1,1.1,8.6,2.4,12.8l-6.5-3.8C1426.6,172.6,1425.7,168.1,1425.4,163.9z M1446.6,202.6c-1.1-0.7-2.4-1.5-3.5-2.4
		c-5.4-4.6-10.1-11.5-13.3-18.9l6.3,3.7c2.2,5.7,5.1,11,8.5,15.6c0,0,0,0.1,0,0.1c0.5,0.7,1.4,1.3,2,2.1c0,0,0.4,0,0.4,0v-0.1
		C1447,202.7,1446.6,202.7,1446.6,202.6z M1452,205.4c-1.1-0.3-2-0.8-3.1-1.4c0,0,0.1-0.1,0.1,0v0c0,0-0.1,0.1-0.1,0.1
		c0.6,0,1-0.1,1.5-0.2c0,0,0,0,0,0c3.5-0.6,6.4-2.5,8.5-5.7l6.3,3.7C1462.1,205.5,1457.4,207,1452,205.4z M1466.9,199.3l-6.5-3.8
		c1.3-2.7,2.1-6.3,2.4-10.1l6.8,3.9C1469.2,193.2,1468.3,196.7,1466.9,199.3z"/>
</g>
</svg>
